<svg width="307" height="209" viewBox="0 0 307 209" fill="none" xmlns="http://www.w3.org/2000/svg">
<path d="M71.9937 184.792C74.7944 184.792 77.2417 185.308 79.3354 186.341C81.4564 187.346 83.102 188.758 84.2713 190.579C85.4677 192.372 86.066 194.478 86.066 196.897C86.0659 199.287 85.4677 201.393 84.2713 203.213C83.102 205.034 81.4564 206.46 79.3354 207.492C77.2417 208.497 74.7944 209 71.9937 209C69.1929 209 66.7319 208.497 64.611 207.492C62.5172 206.46 60.8716 205.034 59.6751 203.213C58.5059 201.393 57.9214 199.287 57.9213 196.897C57.9213 194.478 58.5059 192.372 59.6751 190.579C60.8716 188.758 62.5172 187.346 64.611 186.341C66.732 185.308 69.1929 184.792 71.9937 184.792ZM116.236 196.57L117.419 208.429H111.994L111.394 202.576C111.259 202.806 111.119 203.033 110.974 203.254C109.778 205.074 108.296 206.487 106.529 207.492C104.788 208.497 102.843 209 100.695 209C98.4381 209 96.4397 208.497 94.6995 207.492C92.9592 206.46 91.5995 205.033 90.6206 203.213C89.6417 201.393 89.1525 199.287 89.1525 196.897C89.1525 194.478 89.6417 192.372 90.6206 190.579C91.5995 188.759 92.9593 187.346 94.6995 186.341C96.4397 185.308 98.4381 184.792 100.695 184.792C102.843 184.792 104.788 185.294 106.529 186.3C108.296 187.305 109.778 188.719 110.974 190.539C111.122 190.756 111.266 190.978 111.403 191.205L112.851 177.049H118.316L116.236 196.57ZM127.497 197.304C127.497 199.694 128.041 201.514 129.129 202.764C130.243 203.987 131.834 204.598 133.901 204.598C135.396 204.598 136.674 204.272 137.735 203.62C138.822 202.968 139.665 202.045 140.264 200.849C140.862 199.627 141.161 198.214 141.162 196.611V185.363H146.464V200.931L147.81 208.429H142.508L141.619 202.943C141.488 203.217 141.351 203.484 141.202 203.743C140.224 205.427 138.959 206.731 137.409 207.655C135.859 208.551 134.118 209 132.188 209C130.067 209 128.258 208.565 126.763 207.696C125.294 206.826 124.166 205.577 123.378 203.947C122.589 202.317 122.194 200.374 122.194 198.119V185.363H127.497V197.304ZM164.591 184.792C166.93 184.792 169.051 185.199 170.954 186.014C172.858 186.829 174.422 187.971 175.645 189.438C176.869 190.878 177.617 192.563 177.888 194.492H172.545C172.164 192.753 171.254 191.394 169.813 190.416C168.371 189.438 166.631 188.949 164.591 188.949C162.96 188.949 161.532 189.275 160.309 189.927C159.085 190.552 158.133 191.462 157.453 192.657C156.8 193.826 156.474 195.239 156.474 196.897C156.474 198.526 156.801 199.939 157.453 201.135C158.133 202.33 159.085 203.254 160.309 203.906C161.532 204.531 162.96 204.843 164.591 204.843C166.658 204.843 168.412 204.34 169.854 203.335C171.294 202.33 172.192 200.998 172.545 199.341H177.888C177.617 201.243 176.869 202.928 175.645 204.395C174.422 205.835 172.858 206.963 170.954 207.778C169.051 208.593 166.93 209 164.591 209C161.926 209 159.574 208.497 157.535 207.492C155.523 206.46 153.945 205.034 152.803 203.213C151.661 201.393 151.09 199.287 151.09 196.897C151.09 194.506 151.661 192.399 152.803 190.579C153.945 188.758 155.523 187.346 157.535 186.341C159.574 185.308 161.926 184.792 164.591 184.792ZM189.3 185.363H200.027V189.438H189.3V199.423C189.3 201.352 189.708 202.711 190.523 203.499C191.366 204.259 192.726 204.639 194.602 204.639C195.799 204.639 196.86 204.518 197.784 204.273C198.709 204.001 199.592 203.62 200.435 203.131V207.492C199.728 207.845 198.722 208.185 197.417 208.511C196.139 208.837 194.82 209 193.461 209C191.204 209 189.381 208.633 187.995 207.899C186.608 207.139 185.588 206.107 184.935 204.803C184.31 203.472 183.998 201.949 183.998 200.237V189.438H179.062V187.033L183.998 185.77L186.2 179.331H189.3V185.363ZM227.979 184.792C230.779 184.792 233.227 185.308 235.32 186.341C237.441 187.346 239.087 188.758 240.256 190.579C241.453 192.372 242.051 194.478 242.051 196.897C242.051 199.287 241.453 201.393 240.256 203.213C239.087 205.034 237.441 206.46 235.32 207.492C233.227 208.497 230.779 209 227.979 209C225.178 209 222.717 208.497 220.596 207.492C218.502 206.46 216.857 205.034 215.66 203.213C214.491 201.393 213.906 199.287 213.906 196.897C213.906 194.478 214.491 192.372 215.66 190.579C216.857 188.758 218.502 187.346 220.596 186.341C222.717 185.308 225.178 184.792 227.979 184.792ZM287.401 184.792C289.794 184.792 291.929 185.132 293.805 185.811C295.681 186.463 297.177 187.387 298.291 188.582C299.406 189.75 300.032 191.109 300.168 192.657H294.784C294.675 192.033 294.349 191.435 293.805 190.864C293.288 190.266 292.486 189.778 291.398 189.397C290.338 188.99 288.91 188.785 287.116 188.785C285.212 188.785 283.717 189.03 282.629 189.519C281.569 190.008 281.038 190.729 281.038 191.679C281.038 192.277 281.364 192.793 282.017 193.228C282.67 193.636 283.88 193.921 285.647 194.084L291.48 194.613C293.818 194.831 295.64 195.253 296.945 195.878C298.277 196.475 299.216 197.249 299.76 198.2C300.303 199.151 300.576 200.225 300.576 201.42C300.576 202.969 300.14 204.313 299.27 205.454C298.4 206.595 297.082 207.479 295.314 208.104C293.547 208.702 291.33 209 288.666 209C285.919 209 283.54 208.66 281.528 207.981C279.515 207.275 277.951 206.297 276.836 205.047C275.749 203.77 275.164 202.303 275.083 200.646H280.467C280.63 201.515 281.065 202.29 281.772 202.969C282.506 203.621 283.458 204.123 284.628 204.477C285.824 204.83 287.184 205.006 288.707 205.006C290.909 205.006 292.567 204.748 293.682 204.232C294.797 203.689 295.355 202.873 295.355 201.786C295.355 201.053 294.974 200.496 294.213 200.116C293.478 199.735 292.078 199.45 290.012 199.259L285.483 198.852C283.036 198.635 281.106 198.2 279.692 197.548C278.278 196.869 277.272 196.054 276.674 195.103C276.075 194.125 275.777 193.092 275.777 192.006C275.777 190.43 276.266 189.112 277.245 188.052C278.224 186.993 279.584 186.192 281.324 185.648C283.064 185.078 285.09 184.792 287.401 184.792ZM24.5279 177.863C26.812 177.863 28.7837 178.271 30.4425 179.086C32.1284 179.901 33.4203 181.043 34.3176 182.51C35.242 183.95 35.7037 185.62 35.7038 187.522C35.7038 189.424 35.2422 191.109 34.3176 192.577C33.4203 194.016 32.1282 195.143 30.4425 195.958C28.7837 196.773 26.812 197.181 24.5279 197.181H13.7184V208.429H8.33528V177.863H24.5279ZM53.6228 184.792C54.1665 184.792 54.7238 184.833 55.2947 184.915C55.8656 184.969 56.3687 185.063 56.8038 185.199V189.845C56.2057 189.682 55.5531 189.561 54.8463 189.479C54.1394 189.398 53.4731 189.356 52.8478 189.356C51.3522 189.356 50.019 189.682 48.8497 190.334C47.6805 190.986 46.756 191.965 46.0762 193.269C45.4237 194.546 45.0975 196.122 45.0975 197.996V208.429H39.7952V192.739L38.4079 185.363H43.7102L44.7595 191.717C45.2144 190.364 45.8153 189.183 46.5656 188.175C47.3814 187.115 48.3747 186.287 49.544 185.689C50.7132 185.091 52.0729 184.792 53.6228 184.792ZM209.6 208.429H204.298V185.199L206.949 185.689L209.6 185.199V208.429ZM261.126 184.792C263.302 184.792 265.151 185.227 266.673 186.096C268.196 186.966 269.352 188.215 270.141 189.845C270.957 191.448 271.364 193.391 271.365 195.673V208.429H266.062V196.529C266.062 194.111 265.49 192.29 264.348 191.068C263.233 189.818 261.589 189.194 259.414 189.194C257.918 189.194 256.599 189.533 255.456 190.213C254.342 190.865 253.471 191.788 252.846 192.984C252.248 194.179 251.949 195.578 251.949 197.181V208.429H246.647V192.902L245.259 185.363H250.562L251.486 190.905C251.63 190.61 251.784 190.325 251.949 190.049C252.955 188.364 254.247 187.075 255.824 186.178C257.401 185.254 259.168 184.792 261.126 184.792ZM71.9937 188.949C70.2262 188.949 68.6897 189.275 67.3845 189.927C66.0793 190.579 65.0733 191.503 64.3663 192.698C63.6593 193.867 63.3056 195.266 63.3056 196.897C63.3057 198.526 63.6594 199.939 64.3663 201.135C65.0733 202.303 66.0793 203.213 67.3845 203.865C68.6897 204.517 70.2262 204.843 71.9937 204.843C73.7883 204.843 75.3249 204.517 76.6029 203.865C77.908 203.213 78.9141 202.303 79.6211 201.135C80.328 199.939 80.6817 198.526 80.6818 196.897C80.6818 195.266 80.3281 193.867 79.6211 192.698C78.9141 191.503 77.908 190.579 76.6029 189.927C75.3249 189.275 73.7883 188.949 71.9937 188.949ZM227.979 188.949C226.211 188.949 224.675 189.275 223.369 189.927C222.064 190.579 221.058 191.503 220.351 192.698C219.644 193.867 219.291 195.266 219.291 196.897C219.291 198.526 219.644 199.939 220.351 201.135C221.058 202.303 222.064 203.213 223.369 203.865C224.675 204.517 226.211 204.843 227.979 204.843C229.773 204.843 231.31 204.517 232.588 203.865C233.893 203.213 234.899 202.303 235.606 201.135C236.313 199.939 236.667 198.526 236.667 196.897C236.667 195.266 236.313 193.867 235.606 192.698C234.899 191.503 233.893 190.579 232.588 189.927C231.31 189.275 229.773 188.949 227.979 188.949ZM101.96 189.03C100.519 189.03 99.241 189.37 98.1262 190.049C97.0113 190.701 96.1271 191.626 95.4745 192.821C94.8492 193.989 94.5367 195.348 94.5367 196.897C94.5368 198.445 94.8493 199.816 95.4745 201.012C96.1271 202.18 97.0113 203.105 98.1262 203.784C99.241 204.436 100.519 204.762 101.96 204.762C103.429 204.762 104.789 204.436 106.039 203.784C107.29 203.105 108.391 202.18 109.343 201.012C110.322 199.817 111.096 198.445 111.667 196.897C111.096 195.348 110.322 193.989 109.343 192.821C108.391 191.626 107.29 190.701 106.039 190.049C104.789 189.37 103.429 189.03 101.96 189.03ZM13.7184 192.536H24.3241C26.1731 192.536 27.6144 192.087 28.6477 191.19C29.7082 190.294 30.2387 189.071 30.2387 187.522C30.2386 185.974 29.708 184.751 28.6477 183.855C27.6144 182.958 26.1731 182.51 24.3241 182.51H13.7184V192.536ZM206.949 176.275C207.982 176.275 208.812 176.56 209.437 177.13C210.09 177.673 210.416 178.394 210.416 179.291C210.416 180.187 210.09 180.92 209.437 181.491C208.812 182.034 207.982 182.306 206.949 182.306C205.943 182.306 205.113 182.034 204.46 181.491C203.808 180.92 203.482 180.187 203.482 179.291C203.482 178.394 203.808 177.673 204.46 177.13C205.113 176.559 205.943 176.275 206.949 176.275ZM203.302 144.387C216.141 144.387 225.459 146.714 230.902 151.675L231.356 152.069C236.169 156.09 244.567 158.241 256.874 158.241C269.523 158.241 286.052 155.972 306.49 151.402L307 153.674C286.486 158.261 269.768 160.57 256.874 160.57C244.037 160.57 234.74 158.283 229.339 153.401L229.335 153.397C224.562 149.045 216.001 146.716 203.302 146.716C190.656 146.716 174.15 149.023 153.755 153.671L153.757 153.672C133.421 158.339 116.791 160.688 103.895 160.688C91.0569 160.688 81.6855 158.361 76.109 153.418L75.6492 153.036C70.7927 149.149 62.3637 147.07 50.0527 147.07C37.4005 147.07 20.8901 149.263 0.493926 153.676L0 151.399C20.4698 146.971 37.1635 144.742 50.0527 144.742C62.4842 144.742 71.6078 146.813 77.1128 151.223L77.634 151.657L77.6454 151.668L78.1177 152.07C83.105 156.175 91.5975 158.36 103.895 158.36C116.541 158.36 132.978 156.051 153.235 151.403L157.031 150.554C175.781 146.451 191.212 144.387 203.302 144.387ZM163.123 29.2502C164.41 27.0226 167.262 26.2596 169.492 27.5457C196.247 42.9798 205.414 77.1627 189.967 103.895C183.182 115.636 172.768 123.993 160.964 128.358L159.817 128.768C145.031 133.874 128.175 132.788 113.553 124.353C100.13 116.61 91.1306 104.138 87.4511 90.2713L87.3953 90.0382C86.8848 87.6276 88.3511 85.2131 90.7617 84.5744C93.2503 83.9152 95.8026 85.3981 96.4624 87.8845L96.7628 88.9648C100.004 100.098 107.376 110.033 118.214 116.285C130.398 123.313 144.432 124.225 156.771 119.964L157.727 119.623C167.568 115.984 176.235 109.027 181.892 99.2375C194.765 76.9604 187.126 48.4741 164.83 35.6124C162.601 34.3262 161.836 31.4779 163.123 29.2502ZM30.1409 5.73806C38.5951 2.4561 47.9654 1.54355 58.2514 3.00216C68.8193 4.70392 77.2031 9.01968 83.4029 15.9482C89.8846 23.2415 92.7031 31.8718 91.8577 41.8393C91.2941 46.9446 90.3078 51.6248 88.8987 55.8792C87.6305 60.1336 85.7983 63.9629 83.4029 67.3664C81.1485 70.7698 78.6825 73.9909 76.0054 77.0296C73.3282 80.0684 70.5804 82.9863 67.7623 85.782C64.9444 88.5776 61.8446 91.3123 58.4631 93.9863C55.2224 96.6604 51.77 99.3345 48.1066 102.009C44.584 104.683 40.9206 107.54 37.1161 110.579C33.3119 113.618 29.3662 116.717 25.2801 119.877L87.6309 119.33C91.0122 119.817 92.5615 121.397 92.2799 124.071C92.139 126.624 90.3783 128.204 86.997 128.812C39.6526 129.541 13.6544 129.359 9.00447 128.265C9.14548 123.403 11.0485 119.331 14.7119 116.049C16.5437 114.59 19.8548 112.038 24.6451 108.391C29.4359 104.623 35.7065 99.821 43.4564 93.9863C59.0967 82.3172 69.1712 72.7753 73.6803 65.3605C76.0757 61.5924 77.908 57.7026 79.1761 53.6914C80.5852 49.6801 81.4311 45.5467 81.7129 41.2923C82.4174 32.6619 80.374 25.8545 75.5832 20.8708C71.0742 15.8871 64.5215 12.7266 55.9263 11.3895C47.613 10.2956 40.2153 11.0862 33.7338 13.7604C27.1113 16.3131 21.4752 20.6892 16.8253 26.8884C14.0074 30.0486 11.7526 30.8996 10.0617 29.4413C8.08911 27.9826 7.87798 25.5512 9.42784 22.1478C14.9231 14.3683 21.8275 8.8985 30.1409 5.73806ZM289.957 1.45568C291.651 -0.335006 294.472 -0.502759 296.369 1.11454C298.266 2.73217 298.543 5.54198 297.04 7.49491L296.889 7.68139L256.925 54.4703L299.533 117.322L299.663 117.523C300.941 119.631 300.353 122.392 298.288 123.79C296.223 125.188 293.438 124.709 291.953 122.742L291.815 122.546L250.647 61.8195L201.91 118.882C200.239 120.839 197.296 121.072 195.337 119.402C193.885 118.163 193.381 116.225 193.901 114.508C194.046 113.781 194.367 113.078 194.87 112.466L195.679 111.459C203.933 100.966 208.852 87.7418 208.852 73.3579C208.852 39.2745 181.199 11.6442 147.086 11.6442C144.512 11.6442 142.425 9.55895 142.425 6.98661C142.425 4.41442 144.512 2.32898 147.086 2.32898C186.348 2.32898 218.175 34.1298 218.175 73.3579C218.175 78.0354 217.718 82.6077 216.854 87.034L289.797 1.6342L289.957 1.45568ZM139.842 55.6586C140.898 54.5013 142.274 53.3234 143.694 53.605C144.505 53.7661 145.316 54.4061 145.966 55.6598C146.583 56.8483 146.893 58.274 147.049 59.518C147.342 61.8665 147.212 64.5961 146.952 67.2334C146.618 70.6209 145.957 74.8572 145 79.8917C147.186 78.1543 149.128 76.7038 150.823 75.5468C153.679 73.5961 156.054 72.3193 157.762 72.0809C158.525 71.9744 159.734 71.9669 160.768 73.2282C161.377 73.9703 161.888 75.1139 162.14 76.618C162.16 76.7395 162.178 76.8608 162.194 76.9807C163.95 75.3817 165.521 74.0423 166.907 72.9701C168.339 71.8628 169.616 71.0047 170.719 70.44C171.776 69.8988 172.868 69.5221 173.854 69.66C174.824 69.7958 176.415 70.6092 177.112 73.8218C177.684 76.4561 177.235 79.0634 176.907 80.5365C176.18 83.8051 174.547 87.9213 172.36 92.6388C171.4 94.7088 169.749 94.8891 168.673 93.0414C167.598 91.1934 167.505 88.0169 168.465 85.9469C169.352 84.035 170.059 82.3978 170.61 81.0209C170.085 81.3719 169.501 81.7947 168.854 82.2945C166.382 84.2067 163.161 87.1246 159.172 91.0889L158.364 91.8963C156.785 93.4796 155.307 91.8757 154.676 90.1929C154.107 88.6757 153.79 85.9515 154.651 83.6738C154.031 84.0466 153.337 84.4923 152.567 85.0179C149.982 86.7836 146.712 89.3245 142.746 92.6616L141.942 93.3404C139.452 95.452 137.146 90.5121 138.114 86.0811L138.495 84.3254C140.344 75.7057 141.421 69.4407 141.824 65.3571C141.834 65.2595 141.841 65.1635 141.85 65.0706C141.167 65.9296 140.328 67.1501 139.322 68.7889C136.876 72.7755 133.688 78.839 129.741 87.0658L128.942 88.7396C127.669 91.4171 125.925 90.6394 125.075 89.4242C124.232 88.219 123.365 85.3266 124.246 82.2399L124.566 81.1039C125.484 77.8093 126.092 75.2518 126.459 73.3522C126.383 73.4203 126.306 73.4925 126.225 73.5682C125.274 74.4644 124.094 75.7767 122.675 77.5493C119.837 81.0935 116.188 86.2966 111.707 93.2131L111.599 93.37C110.479 94.925 108.91 94.5332 108.037 92.4364C107.135 90.2716 107.316 87.1086 108.441 85.3726L109.283 84.0763C113.455 77.6883 116.977 72.6877 119.833 69.1198C121.356 67.2175 122.726 65.6762 123.931 64.5418C125.102 63.4394 126.267 62.5748 127.346 62.271C128.379 61.9804 129.979 62.0594 131.136 64.5418C131.641 65.6258 131.907 66.8506 132.033 68.0407C133.467 65.3471 134.773 63.0373 135.949 61.1202C137.375 58.7972 138.68 56.9342 139.842 55.6586Z" fill="white"/>
</svg>
