<svg width="211" height="227" viewBox="0 0 211 227" fill="none" xmlns="http://www.w3.org/2000/svg">
<path d="M49.481 126.437C51.406 126.437 53.088 126.79 54.527 127.496C55.985 128.184 57.116 129.15 57.919 130.396C58.742 131.623 59.153 133.064 59.153 134.719C59.153 136.354 58.742 137.795 57.919 139.041C57.116 140.286 55.985 141.262 54.527 141.968C53.088 142.656 51.406 143 49.481 143C47.556 143 45.865 142.656 44.407 141.968C42.968 141.262 41.837 140.286 41.015 139.041C40.211 137.795 39.809 136.354 39.809 134.719C39.809 133.064 40.211 131.623 41.015 130.396C41.837 129.151 42.968 128.184 44.407 127.496C45.865 126.79 47.556 126.437 49.481 126.437ZM79.889 134.495L80.702 142.609H76.973L76.561 138.605C76.468 138.762 76.372 138.917 76.272 139.069C75.45 140.314 74.431 141.281 73.217 141.968C72.021 142.656 70.684 143 69.207 143C67.656 143 66.283 142.656 65.087 141.968C63.891 141.262 62.956 140.286 62.283 139.041C61.61 137.795 61.274 136.354 61.274 134.719C61.274 133.064 61.61 131.623 62.283 130.396C62.956 129.151 63.891 128.184 65.087 127.496C66.283 126.79 67.656 126.437 69.207 126.437C70.684 126.437 72.021 126.78 73.217 127.468C74.432 128.156 75.45 129.123 76.272 130.369C76.374 130.517 76.472 130.669 76.567 130.825L77.562 121.139H81.318L79.889 134.495ZM87.628 134.997C87.628 136.633 88.002 137.878 88.75 138.733C89.516 139.57 90.609 139.988 92.029 139.988C93.057 139.988 93.936 139.765 94.665 139.319C95.412 138.873 95.991 138.241 96.403 137.423C96.814 136.587 97.02 135.62 97.02 134.523V126.827H100.664V137.479L101.589 142.609H97.945L97.334 138.855C97.244 139.043 97.15 139.226 97.048 139.403C96.375 140.556 95.506 141.448 94.441 142.08C93.376 142.693 92.179 143 90.852 143C89.394 143 88.151 142.702 87.123 142.108C86.114 141.513 85.339 140.658 84.797 139.542C84.255 138.427 83.984 137.098 83.984 135.555V126.827H87.628V134.997ZM113.123 126.437C114.73 126.437 116.188 126.715 117.496 127.273C118.804 127.831 119.879 128.612 120.72 129.616C121.561 130.601 122.075 131.753 122.262 133.073H118.59C118.328 131.883 117.702 130.954 116.712 130.285C115.721 129.615 114.525 129.281 113.123 129.281C112.002 129.281 111.02 129.504 110.179 129.95C109.338 130.378 108.684 131 108.217 131.818C107.768 132.618 107.544 133.585 107.544 134.719C107.544 135.834 107.768 136.801 108.217 137.618C108.684 138.436 109.338 139.068 110.179 139.514C111.02 139.942 112.002 140.156 113.123 140.156C114.543 140.156 115.749 139.812 116.74 139.124C117.73 138.436 118.347 137.525 118.59 136.391H122.262C122.075 137.693 121.561 138.845 120.72 139.849C119.879 140.834 118.804 141.606 117.496 142.164C116.188 142.721 114.73 143 113.123 143C111.291 143 109.675 142.656 108.273 141.968C106.89 141.262 105.806 140.286 105.021 139.041C104.236 137.795 103.844 136.354 103.844 134.719C103.844 133.083 104.236 131.641 105.021 130.396C105.806 129.15 106.89 128.184 108.273 127.496C109.675 126.79 111.291 126.437 113.123 126.437ZM130.105 126.827H137.478V129.616H130.105V136.447C130.105 137.767 130.385 138.697 130.946 139.236C131.525 139.756 132.46 140.016 133.749 140.016C134.572 140.016 135.301 139.933 135.936 139.766C136.572 139.58 137.179 139.319 137.758 138.985V141.968C137.272 142.21 136.581 142.442 135.684 142.665C134.806 142.888 133.899 143 132.965 143C131.414 143 130.161 142.749 129.208 142.247C128.255 141.726 127.554 141.02 127.105 140.128C126.676 139.217 126.461 138.176 126.461 137.005V129.616H123.069V127.97L126.461 127.106L127.974 122.7H130.105V126.827ZM156.689 126.437C158.614 126.437 160.296 126.79 161.735 127.496C163.193 128.184 164.324 129.15 165.127 130.396C165.95 131.623 166.361 133.064 166.361 134.719C166.361 136.354 165.95 137.795 165.127 139.041C164.324 140.286 163.193 141.262 161.735 141.968C160.296 142.656 158.614 143 156.689 143C154.764 143 153.073 142.656 151.615 141.968C150.176 141.262 149.045 140.286 148.222 139.041C147.419 137.795 147.017 136.354 147.017 134.719C147.017 133.064 147.419 131.623 148.222 130.396C149.045 129.15 150.176 128.184 151.615 127.496C153.073 126.79 154.764 126.437 156.689 126.437ZM197.53 126.437C199.174 126.437 200.642 126.669 201.931 127.134C203.221 127.58 204.248 128.212 205.015 129.03C205.781 129.829 206.211 130.759 206.304 131.818H202.604C202.529 131.391 202.305 130.982 201.931 130.591C201.576 130.182 201.024 129.848 200.277 129.588C199.548 129.309 198.567 129.169 197.333 129.169C196.025 129.169 194.998 129.336 194.25 129.671C193.521 130.005 193.157 130.498 193.157 131.149C193.157 131.558 193.381 131.911 193.829 132.209C194.278 132.488 195.11 132.683 196.324 132.795L200.333 133.156C201.94 133.305 203.192 133.594 204.089 134.022C205.005 134.43 205.65 134.96 206.024 135.61C206.397 136.261 206.584 136.996 206.584 137.814C206.584 138.873 206.285 139.793 205.687 140.574C205.089 141.355 204.183 141.959 202.968 142.387C201.754 142.796 200.23 143 198.399 143C196.511 143 194.876 142.768 193.493 142.303C192.11 141.82 191.035 141.151 190.269 140.296C189.521 139.422 189.119 138.418 189.063 137.284H192.764C192.876 137.879 193.175 138.409 193.661 138.873C194.166 139.319 194.82 139.663 195.624 139.905C196.446 140.147 197.38 140.268 198.427 140.268C199.941 140.268 201.08 140.091 201.847 139.738C202.613 139.366 202.997 138.808 202.997 138.064C202.996 137.562 202.734 137.181 202.211 136.921C201.707 136.661 200.744 136.466 199.324 136.335L196.212 136.057C194.53 135.908 193.203 135.611 192.231 135.164C191.259 134.7 190.568 134.142 190.157 133.492C189.746 132.823 189.54 132.116 189.54 131.372C189.54 130.294 189.877 129.392 190.549 128.667C191.222 127.942 192.157 127.394 193.353 127.022C194.549 126.632 195.941 126.437 197.53 126.437ZM16.858 121.696C18.428 121.696 19.783 121.975 20.923 122.532C22.082 123.09 22.97 123.871 23.586 124.875C24.222 125.86 24.539 127.004 24.539 128.305C24.539 129.606 24.222 130.759 23.586 131.763C22.97 132.748 22.082 133.519 20.923 134.077C19.783 134.634 18.428 134.913 16.858 134.913H9.429V142.609H5.729V121.696H16.858ZM36.855 126.437C37.228 126.437 37.611 126.465 38.004 126.521C38.396 126.558 38.742 126.622 39.041 126.715V129.894C38.63 129.783 38.181 129.699 37.696 129.644C37.21 129.588 36.752 129.56 36.322 129.56C35.294 129.56 34.378 129.783 33.574 130.229C32.771 130.675 32.135 131.344 31.668 132.237C31.22 133.11 30.995 134.189 30.995 135.471V142.609H27.351V131.874L26.398 126.827H30.042L30.763 131.175C31.076 130.249 31.489 129.441 32.004 128.751C32.565 128.026 33.248 127.459 34.051 127.05C34.855 126.642 35.79 126.437 36.855 126.437ZM144.057 142.609H140.413V126.715L142.235 127.05L144.057 126.715V142.609ZM179.471 126.437C180.966 126.437 182.237 126.734 183.284 127.329C184.33 127.924 185.125 128.779 185.667 129.894C186.228 130.991 186.508 132.32 186.508 133.882V142.609H182.864V134.467C182.864 132.813 182.471 131.567 181.686 130.731C180.919 129.876 179.789 129.448 178.294 129.448C177.266 129.448 176.359 129.681 175.574 130.145C174.808 130.592 174.21 131.224 173.78 132.041C173.369 132.859 173.164 133.817 173.164 134.913V142.609H169.519V131.985L168.566 126.827H172.21L172.845 130.619C172.944 130.418 173.05 130.222 173.164 130.033C173.855 128.881 174.743 127.998 175.827 127.385C176.911 126.753 178.126 126.437 179.471 126.437ZM49.481 129.281C48.266 129.281 47.21 129.504 46.313 129.95C45.416 130.396 44.725 131.028 44.239 131.846C43.753 132.646 43.51 133.603 43.51 134.719C43.51 135.834 43.753 136.801 44.239 137.618C44.725 138.418 45.416 139.04 46.313 139.486C47.21 139.933 48.266 140.156 49.481 140.156C50.714 140.156 51.771 139.933 52.649 139.486C53.546 139.04 54.237 138.418 54.723 137.618C55.209 136.801 55.452 135.834 55.452 134.719C55.452 133.603 55.209 132.646 54.723 131.846C54.237 131.028 53.546 130.396 52.649 129.95C51.771 129.504 50.714 129.281 49.481 129.281ZM156.689 129.281C155.474 129.281 154.418 129.504 153.521 129.95C152.624 130.396 151.933 131.028 151.447 131.846C150.961 132.646 150.718 133.603 150.718 134.719C150.718 135.834 150.961 136.801 151.447 137.618C151.933 138.418 152.624 139.04 153.521 139.486C154.418 139.933 155.474 140.156 156.689 140.156C157.922 140.156 158.978 139.933 159.857 139.486C160.754 139.04 161.445 138.418 161.931 137.618C162.417 136.801 162.66 135.834 162.66 134.719C162.66 133.603 162.417 132.646 161.931 131.846C161.445 131.028 160.754 130.396 159.857 129.95C158.978 129.504 157.922 129.281 156.689 129.281ZM70.077 129.336C69.087 129.336 68.208 129.569 67.442 130.033C66.676 130.48 66.068 131.112 65.619 131.93C65.19 132.73 64.975 133.659 64.975 134.719C64.975 135.778 65.19 136.717 65.619 137.534C66.068 138.334 66.676 138.966 67.442 139.431C68.208 139.877 69.087 140.1 70.077 140.1C71.086 140.1 72.021 139.877 72.88 139.431C73.74 138.966 74.497 138.334 75.151 137.534C75.824 136.717 76.356 135.778 76.748 134.719C76.356 133.659 75.824 132.73 75.151 131.93C74.497 131.112 73.74 130.48 72.88 130.033C72.021 129.569 71.086 129.336 70.077 129.336ZM9.429 131.735H16.718C17.989 131.735 18.979 131.428 19.689 130.815C20.418 130.201 20.783 129.364 20.783 128.305C20.783 127.245 20.418 126.409 19.689 125.795C18.979 125.182 17.989 124.875 16.718 124.875H9.429V131.735ZM142.235 120.609C142.946 120.609 143.516 120.804 143.945 121.194C144.394 121.566 144.618 122.059 144.618 122.672C144.618 123.286 144.394 123.788 143.945 124.178C143.516 124.55 142.946 124.736 142.235 124.736C141.544 124.736 140.973 124.55 140.525 124.178C140.076 123.788 139.852 123.286 139.852 122.672C139.852 122.059 140.076 121.566 140.525 121.194C140.973 120.804 141.544 120.609 142.235 120.609ZM139.729 98.7909C148.553 98.7909 154.957 100.383 158.698 103.777L159.01 104.047C162.318 106.799 168.09 108.27 176.549 108.27C185.242 108.27 196.602 106.718 210.65 103.591L211 105.145C196.901 108.284 185.41 109.864 176.549 109.864C167.726 109.864 161.336 108.299 157.624 104.958L157.621 104.956C154.34 101.978 148.457 100.384 139.729 100.384C131.037 100.384 119.693 101.963 105.676 105.144C91.7 108.337 80.27 109.945 71.407 109.945C62.583 109.945 56.142 108.353 52.309 104.97L51.993 104.709C48.656 102.049 42.862 100.627 34.401 100.627C25.705 100.627 14.358 102.127 0.3395 105.147L0 103.589C14.069 100.559 25.542 99.0339 34.401 99.0339C42.945 99.0339 49.216 100.451 52.999 103.468L53.358 103.766L53.365 103.773L53.69 104.048C57.118 106.856 62.955 108.351 71.407 108.351C80.098 108.351 91.395 106.772 105.318 103.591L107.927 103.011C120.813 100.204 131.419 98.7909 139.729 98.7909ZM112.114 20.0129C112.999 18.4889 114.959 17.9669 116.491 18.8469C134.88 29.4069 141.18 52.7959 130.564 71.0859C125.901 79.1199 118.743 84.8369 110.63 87.8239L109.842 88.1049C99.68 91.5979 88.094 90.8549 78.044 85.0839C68.819 79.7859 62.634 71.2529 60.105 61.7649L60.066 61.6049C59.716 59.9559 60.723 58.3039 62.38 57.8669C64.091 57.4159 65.845 58.4299 66.298 60.1319L66.505 60.8709C68.732 68.4879 73.799 75.2859 81.248 79.5639C89.622 84.3719 99.267 84.9959 107.748 82.0799L108.405 81.8469C115.169 79.3569 121.126 74.5979 125.014 67.8989C133.861 52.6569 128.611 33.1669 113.287 24.3659C111.755 23.4859 111.229 21.5369 112.114 20.0129ZM20.716 3.92586C26.526 1.67986 32.966 1.05586 40.036 2.05386C47.299 3.21786 53.061 6.17086 57.323 10.9119C61.777 15.9019 63.715 21.8069 63.133 28.6269C62.746 32.1199 62.068 35.3219 61.1 38.2329C60.228 41.1439 58.969 43.7639 57.323 46.0929C55.773 48.4209 54.078 50.6249 52.238 52.7039C50.398 54.7839 48.51 56.7799 46.573 58.6929C44.636 60.6059 42.506 62.4769 40.181 64.3059C37.954 66.1359 35.581 67.9659 33.063 69.7949C30.642 71.6249 28.125 73.5799 25.51 75.6589C22.895 77.7389 20.183 79.8589 17.375 82.0209L60.228 81.6469C62.552 81.9799 63.617 83.0609 63.424 84.8909C63.327 86.6369 62.117 87.7179 59.793 88.1339C27.253 88.6329 9.385 88.5089 6.189 87.7599C6.286 84.4329 7.594 81.6469 10.111 79.4019C11.37 78.4039 13.646 76.6569 16.938 74.1619C20.231 71.5839 24.541 68.2989 29.867 64.3059C40.617 56.3219 47.541 49.7939 50.64 44.7199C52.287 42.1419 53.546 39.4809 54.417 36.7359C55.386 33.9919 55.967 31.1639 56.161 28.2529C56.645 22.3479 55.241 17.6899 51.948 14.2799C48.849 10.8699 44.345 8.70786 38.438 7.79286C32.724 7.04386 27.64 7.58485 23.185 9.41486C18.634 11.1619 14.76 14.1559 11.564 18.3969C9.627 20.5599 8.078 21.1419 6.915 20.1439C5.56 19.1459 5.415 17.4819 6.48 15.1539C10.257 9.83087 15.002 6.08786 20.716 3.92586ZM199.287 0.995864C200.451 -0.229136 202.39 -0.344138 203.693 0.762862C204.997 1.86886 205.188 3.79186 204.154 5.12786L204.051 5.25586L176.583 37.2689L205.868 80.2729L205.957 80.4109C206.836 81.8529 206.431 83.7419 205.012 84.6989C203.593 85.6549 201.679 85.3269 200.659 83.9809L200.563 83.8469L172.269 42.2979L138.772 81.3409C137.623 82.6789 135.601 82.8389 134.255 81.6959C133.256 80.8479 132.91 79.5219 133.268 78.3469C133.367 77.8499 133.588 77.3689 133.933 76.9499L134.489 76.2619C140.162 69.0819 143.543 60.0339 143.543 50.1919C143.543 26.8719 124.537 7.96686 101.092 7.96686C99.322 7.96686 97.888 6.53986 97.888 4.77986C97.888 3.01986 99.323 1.59386 101.092 1.59386C128.076 1.59386 149.951 23.3519 149.951 50.1919C149.951 53.3929 149.637 56.5209 149.043 59.5499L199.176 1.11786L199.287 0.995864ZM96.113 38.0819C96.839 37.2899 97.784 36.4839 98.76 36.6769C99.318 36.7869 99.875 37.2249 100.322 38.0829C100.746 38.8959 100.959 39.8719 101.066 40.7229C101.268 42.3299 101.179 44.1969 101 46.0019C100.77 48.3199 100.316 51.2179 99.658 54.6629C101.16 53.4739 102.495 52.4819 103.66 51.6899C105.623 50.3549 107.255 49.4819 108.429 49.3179C108.954 49.2459 109.784 49.2399 110.496 50.1039C110.914 50.6109 111.265 51.3939 111.438 52.4229C111.452 52.5059 111.465 52.5889 111.476 52.6709C112.682 51.5769 113.762 50.6599 114.715 49.9269C115.699 49.1689 116.576 48.5819 117.334 48.1959C118.061 47.8259 118.812 47.5679 119.489 47.6619C120.156 47.7549 121.249 48.3119 121.729 50.5099C122.122 52.3119 121.813 54.0959 121.588 55.1039C121.088 57.3399 119.966 60.1569 118.462 63.3839C117.802 64.8009 116.668 64.9239 115.929 63.6599C115.19 62.3949 115.126 60.2219 115.785 58.8059C116.395 57.4979 116.881 56.3769 117.26 55.4349C116.899 55.6759 116.497 55.9649 116.053 56.3069C114.354 57.6149 112.14 59.6119 109.398 62.3239L108.843 62.8759C107.758 63.9599 106.742 62.8619 106.308 61.7109C105.917 60.6729 105.699 58.8089 106.291 57.2499C105.865 57.5059 105.388 57.8109 104.859 58.1699C103.082 59.3779 100.835 61.1169 98.109 63.3999L97.556 63.8649C95.845 65.3089 94.26 61.9289 94.925 58.8979L95.187 57.6959C96.458 51.7989 97.198 47.5119 97.475 44.7179C97.482 44.6509 97.487 44.5859 97.493 44.5219C97.024 45.1099 96.447 45.9449 95.756 47.0659C94.075 49.7939 91.883 53.9429 89.17 59.5709L88.621 60.7169C87.746 62.5489 86.548 62.0159 85.963 61.1849C85.384 60.3599 84.788 58.3809 85.394 56.2689L85.614 55.4919C86.245 53.2379 86.662 51.4879 86.915 50.1879C86.863 50.2349 86.81 50.2839 86.754 50.3359C86.1 50.9489 85.289 51.8469 84.314 53.0599C82.364 55.4849 79.856 59.0449 76.776 63.7769L76.701 63.8849C75.932 64.9489 74.854 64.6809 74.253 63.2459C73.633 61.7649 73.758 59.6009 74.531 58.4129L75.11 57.5259C77.977 53.1549 80.398 49.7339 82.361 47.2929C83.407 45.9909 84.349 44.9359 85.177 44.1599C85.982 43.4059 86.783 42.8139 87.525 42.6059C88.234 42.4079 89.334 42.4619 90.129 44.1599C90.477 44.9019 90.659 45.7399 90.746 46.5539C91.731 44.7109 92.629 43.1309 93.437 41.8189C94.417 40.2299 95.314 38.9549 96.113 38.0819Z" fill="white"/>
<path d="M54 193.197H61.133V202.595H60.251V193.961H54.882V202.595H54V193.197Z" fill="white"/>
<path d="M66.882 202.779C66.156 202.779 65.516 202.648 64.963 202.385C64.418 202.113 63.964 201.753 63.601 201.305C63.238 200.858 62.966 200.34 62.784 199.752C62.602 199.164 62.512 198.546 62.512 197.896C62.512 197.256 62.602 196.642 62.784 196.054C62.966 195.457 63.238 194.935 63.601 194.487C63.964 194.031 64.418 193.671 64.963 193.408C65.516 193.136 66.156 193 66.882 193C67.608 193 68.244 193.136 68.788 193.408C69.333 193.671 69.787 194.031 70.15 194.487C70.513 194.935 70.786 195.457 70.967 196.054C71.149 196.642 71.239 197.256 71.239 197.896C71.239 198.546 71.149 199.164 70.967 199.752C70.786 200.34 70.513 200.858 70.15 201.305C69.787 201.753 69.333 202.113 68.788 202.385C68.244 202.648 67.608 202.779 66.882 202.779ZM66.882 202.029C67.487 202.029 68.01 201.911 68.451 201.674C68.892 201.437 69.251 201.125 69.528 200.739C69.813 200.344 70.02 199.901 70.15 199.41C70.288 198.919 70.358 198.414 70.358 197.896C70.358 197.387 70.288 196.887 70.15 196.396C70.02 195.896 69.813 195.453 69.528 195.066C69.251 194.672 68.892 194.356 68.451 194.119C68.01 193.882 67.487 193.763 66.882 193.763C66.268 193.763 65.741 193.882 65.3 194.119C64.859 194.356 64.496 194.672 64.211 195.066C63.934 195.453 63.726 195.896 63.588 196.396C63.458 196.887 63.394 197.387 63.394 197.896C63.394 198.414 63.458 198.919 63.588 199.41C63.726 199.901 63.934 200.344 64.211 200.739C64.496 201.125 64.859 201.437 65.3 201.674C65.741 201.911 66.268 202.029 66.882 202.029Z" fill="white"/>
<path d="M78.038 198.317C77.908 198.353 77.726 198.392 77.493 198.436C77.26 198.48 77.005 198.524 76.728 198.568C76.46 198.603 76.188 198.638 75.911 198.673C75.643 198.699 75.405 198.712 75.198 198.712C74.532 198.712 74 198.633 73.602 198.475C73.213 198.309 72.915 198.098 72.708 197.844C72.5 197.58 72.366 197.291 72.306 196.975C72.245 196.65 72.215 196.33 72.215 196.014V193.197H73.097V195.961C73.097 196.155 73.114 196.365 73.149 196.593C73.183 196.821 73.27 197.036 73.408 197.238C73.546 197.431 73.745 197.598 74.004 197.738C74.273 197.87 74.64 197.936 75.107 197.936C75.383 197.936 75.669 197.923 75.963 197.896C76.265 197.861 76.551 197.826 76.819 197.791C77.087 197.747 77.324 197.703 77.532 197.659C77.748 197.616 77.917 197.58 78.038 197.554V193.197H78.92V202.595H78.038V198.317Z" fill="white"/>
<path d="M81.641 202.7C81.434 202.7 81.244 202.687 81.071 202.661C80.907 202.635 80.777 202.604 80.682 202.569V201.779C80.794 201.823 80.928 201.862 81.084 201.898C81.239 201.924 81.421 201.937 81.628 201.937C81.957 201.937 82.229 201.832 82.445 201.621C82.67 201.411 82.886 201.082 83.094 200.634L83.211 200.384L79.774 193.197H80.721L83.729 199.436L86.66 193.197H87.594L83.95 200.858C83.76 201.261 83.574 201.586 83.392 201.832C83.211 202.069 83.025 202.253 82.834 202.385C82.653 202.516 82.463 202.6 82.264 202.635C82.074 202.679 81.866 202.7 81.641 202.7Z" fill="white"/>
<path d="M90.64 193.961H87.424V193.197H94.751V193.961H91.522V202.595H90.64V193.961Z" fill="white"/>
<path d="M95.616 193.197H96.497V201.634L101.815 193.197H102.956V202.595H102.074V194.158L96.757 202.595H95.616V193.197Z" fill="white"/>
<path d="M108.432 193.197H114.826V193.961H109.314V197.172H112.803C113.667 197.172 114.341 197.414 114.826 197.896C115.31 198.379 115.552 199.041 115.552 199.884C115.552 200.726 115.31 201.389 114.826 201.871C114.341 202.354 113.667 202.595 112.803 202.595H108.432V193.197ZM112.608 201.832C113.256 201.832 113.762 201.661 114.125 201.318C114.488 200.967 114.67 200.489 114.67 199.884C114.67 199.278 114.488 198.804 114.125 198.462C113.762 198.111 113.256 197.936 112.608 197.936H109.314V201.832H112.608Z" fill="white"/>
<path d="M117.147 193.197H118.029V202.595H117.147V193.197Z" fill="white"/>
<path d="M119.723 202.674C119.672 202.674 119.607 202.67 119.529 202.661C119.46 202.652 119.386 202.643 119.308 202.635C119.231 202.626 119.161 202.613 119.101 202.595C119.04 202.586 118.997 202.578 118.971 202.569V201.805C119.04 201.841 119.144 201.867 119.283 201.884C119.429 201.893 119.538 201.898 119.607 201.898C119.702 201.898 119.814 201.889 119.944 201.871C120.074 201.845 120.208 201.766 120.346 201.634C120.493 201.494 120.636 201.279 120.774 200.989C120.921 200.691 121.046 200.27 121.15 199.726C121.262 199.173 121.353 198.475 121.422 197.633C121.491 196.791 121.526 195.755 121.526 194.527V193.197H127.219V202.595H126.337V193.961H122.382V194.474C122.382 195.843 122.339 196.997 122.252 197.936C122.166 198.866 122.049 199.638 121.902 200.252C121.755 200.858 121.587 201.327 121.396 201.661C121.215 201.985 121.025 202.222 120.826 202.371C120.636 202.521 120.441 202.608 120.242 202.635C120.052 202.661 119.879 202.674 119.723 202.674Z" fill="white"/>
<path d="M129.088 193.197H129.97V197.172H133.199C134.064 197.172 134.738 197.414 135.222 197.896C135.706 198.379 135.948 199.041 135.948 199.884C135.948 200.726 135.706 201.389 135.222 201.871C134.738 202.354 134.064 202.595 133.199 202.595H129.088V193.197ZM133.004 201.832C133.653 201.832 134.159 201.661 134.522 201.318C134.885 200.967 135.066 200.489 135.066 199.884C135.066 199.278 134.885 198.804 134.522 198.462C134.159 198.111 133.653 197.936 133.004 197.936H129.97V201.832H133.004Z" fill="white"/>
<path d="M137.257 193.197H138.138V201.832H142.522V193.197H143.404V201.832H147.787V193.197H148.669V202.595H137.257V193.197Z" fill="white"/>
<path d="M150.542 193.197H156.935V193.961H151.424V197.357H156.585V198.12H151.424V201.832H157V202.595H150.542V193.197Z" fill="white"/>
<path d="M127.576 217.128C128.598 217.128 129.398 217.225 129.951 217.437C130.229 217.544 130.463 217.686 130.628 217.877C130.798 218.072 130.886 218.307 130.886 218.568C130.886 219.064 130.571 219.616 130.058 220.206C129.534 220.809 128.758 221.501 127.739 222.283C126.732 223.055 125.988 223.722 125.499 224.285C124.999 224.861 124.807 225.28 124.807 225.56C124.807 225.688 124.846 225.793 124.929 225.889C125.017 225.99 125.164 226.09 125.392 226.178C125.852 226.354 126.572 226.452 127.576 226.452C131.589 226.452 139.662 224.908 151.826 221.799L151.958 222.33C139.806 225.436 131.668 227 127.576 227C126.553 227 125.754 226.903 125.201 226.691C124.922 226.584 124.689 226.442 124.524 226.252C124.354 226.056 124.266 225.821 124.266 225.56C124.266 225.064 124.581 224.512 125.094 223.922C125.617 223.32 126.393 222.627 127.413 221.845C128.42 221.073 129.164 220.406 129.653 219.843C130.153 219.268 130.345 218.849 130.345 218.568C130.345 218.441 130.306 218.335 130.223 218.24C130.135 218.139 129.988 218.038 129.76 217.951C129.3 217.774 128.58 217.677 127.576 217.677C123.563 217.677 115.49 219.22 103.326 222.33C91.174 225.436 83.036 227 78.944 227C77.922 227 77.122 226.903 76.569 226.691C76.291 226.584 76.057 226.442 75.892 226.252C75.722 226.056 75.634 225.821 75.634 225.56C75.634 225.064 75.949 224.512 76.462 223.922C76.986 223.32 77.762 222.627 78.781 221.845C79.788 221.073 80.532 220.406 81.021 219.843C81.521 219.268 81.713 218.849 81.713 218.568C81.713 218.441 81.674 218.335 81.591 218.24C81.503 218.139 81.356 218.038 81.128 217.951C80.668 217.774 79.948 217.677 78.944 217.677C74.931 217.677 66.858 219.22 54.694 222.33L54.562 221.799C66.714 218.692 74.852 217.128 78.944 217.128C79.967 217.128 80.766 217.225 81.319 217.437C81.598 217.544 81.831 217.686 81.996 217.877C82.166 218.072 82.254 218.307 82.254 218.568C82.254 219.064 81.939 219.616 81.426 220.206C80.903 220.809 80.127 221.501 79.107 222.283C78.1 223.055 77.356 223.722 76.867 224.285C76.367 224.861 76.175 225.28 76.175 225.56C76.175 225.688 76.214 225.793 76.297 225.889C76.385 225.99 76.532 226.09 76.76 226.178C77.22 226.354 77.94 226.452 78.944 226.452C82.957 226.452 91.03 224.908 103.194 221.799C115.346 218.692 123.484 217.128 127.576 217.128Z" fill="white"/>
</svg>
