<svg width="191" height="62" viewBox="0 0 191 62" fill="none" xmlns="http://www.w3.org/2000/svg">
<path d="M0 0.36H13.2V17.496H11.568V1.752H1.632V17.496H0V0.36Z" fill="white"/>
<path d="M23.8401 17.832C22.4961 17.832 21.3121 17.592 20.2881 17.112C19.2801 16.616 18.4401 15.96 17.7681 15.144C17.0961 14.328 16.5921 13.384 16.2561 12.312C15.9201 11.24 15.7521 10.112 15.7521 8.928C15.7521 7.76 15.9201 6.64 16.2561 5.568C16.5921 4.48 17.0961 3.528 17.7681 2.712C18.4401 1.88 19.2801 1.224 20.2881 0.744C21.3121 0.248 22.4961 0 23.8401 0C25.1841 0 26.3601 0.248 27.3681 0.744C28.3761 1.224 29.2161 1.88 29.8881 2.712C30.5601 3.528 31.0641 4.48 31.4001 5.568C31.7361 6.64 31.9041 7.76 31.9041 8.928C31.9041 10.112 31.7361 11.24 31.4001 12.312C31.0641 13.384 30.5601 14.328 29.8881 15.144C29.2161 15.96 28.3761 16.616 27.3681 17.112C26.3601 17.592 25.1841 17.832 23.8401 17.832ZM23.8401 16.464C24.9601 16.464 25.9281 16.248 26.7441 15.816C27.5601 15.384 28.2241 14.816 28.7361 14.112C29.2641 13.392 29.6481 12.584 29.8881 11.688C30.1441 10.792 30.2721 9.872 30.2721 8.928C30.2721 8 30.1441 7.088 29.8881 6.192C29.6481 5.28 29.2641 4.472 28.7361 3.768C28.2241 3.048 27.5601 2.472 26.7441 2.04C25.9281 1.608 24.9601 1.392 23.8401 1.392C22.7041 1.392 21.7281 1.608 20.9121 2.04C20.0961 2.472 19.4241 3.048 18.8961 3.768C18.3841 4.472 18.0001 5.28 17.7441 6.192C17.5041 7.088 17.3841 8 17.3841 8.928C17.3841 9.872 17.5041 10.792 17.7441 11.688C18.0001 12.584 18.3841 13.392 18.8961 14.112C19.4241 14.816 20.0961 15.384 20.9121 15.816C21.7281 16.248 22.7041 16.464 23.8401 16.464Z" fill="white"/>
<path d="M44.4851 9.696C44.2451 9.76 43.9091 9.832 43.4771 9.912C43.0451 9.992 42.5731 10.072 42.0611 10.152C41.5651 10.216 41.0611 10.28 40.5491 10.344C40.0531 10.392 39.6131 10.416 39.2291 10.416C37.9971 10.416 37.0131 10.272 36.2771 9.984C35.5571 9.68 35.0051 9.296 34.6211 8.832C34.2371 8.352 33.9891 7.824 33.8771 7.248C33.7651 6.656 33.7091 6.072 33.7091 5.496V0.36H35.3411V5.4C35.3411 5.752 35.3731 6.136 35.4371 6.552C35.5011 6.968 35.6611 7.36 35.9171 7.728C36.1731 8.08 36.5411 8.384 37.0211 8.64C37.5171 8.88 38.1971 9 39.0611 9C39.5731 9 40.1011 8.976 40.6451 8.928C41.2051 8.864 41.7331 8.8 42.2291 8.736C42.7251 8.656 43.1651 8.576 43.5491 8.496C43.9491 8.416 44.2611 8.352 44.4851 8.304V0.36H46.1171V17.496H44.4851V9.696Z" fill="white"/>
<path d="M51.1543 17.688C50.7703 17.688 50.4183 17.664 50.0983 17.616C49.7943 17.568 49.5543 17.512 49.3783 17.448V16.008C49.5863 16.088 49.8343 16.16 50.1223 16.224C50.4103 16.272 50.7463 16.296 51.1303 16.296C51.7383 16.296 52.2423 16.104 52.6423 15.72C53.0583 15.336 53.4583 14.736 53.8423 13.92L54.0583 13.464L47.6983 0.36H49.4503L55.0183 11.736L60.4423 0.36H62.1703L55.4263 14.328C55.0743 15.064 54.7303 15.656 54.3943 16.104C54.0583 16.536 53.7143 16.872 53.3623 17.112C53.0263 17.352 52.6743 17.504 52.3063 17.568C51.9543 17.648 51.5703 17.688 51.1543 17.688Z" fill="white"/>
<path d="M67.8077 1.752H61.8557V0.36H75.4157V1.752H69.4397V17.496H67.8077V1.752Z" fill="white"/>
<path d="M77.0156 0.36H78.6476V15.744L88.4876 0.36H90.5996V17.496H88.9676V2.112L79.1276 17.496H77.0156V0.36Z" fill="white"/>
<path d="M100.734 0.36H112.566V1.752H102.366V7.608H108.822C110.422 7.608 111.67 8.048 112.566 8.928C113.462 9.808 113.91 11.016 113.91 12.552C113.91 14.088 113.462 15.296 112.566 16.176C111.67 17.056 110.422 17.496 108.822 17.496H100.734V0.36ZM108.462 16.104C109.662 16.104 110.598 15.792 111.27 15.168C111.942 14.528 112.278 13.656 112.278 12.552C112.278 11.448 111.942 10.584 111.27 9.96C110.598 9.32 109.662 9 108.462 9H102.366V16.104H108.462Z" fill="white"/>
<path d="M116.862 0.36H118.494V17.496H116.862V0.36Z" fill="white"/>
<path d="M121.631 17.64C121.535 17.64 121.415 17.632 121.271 17.616C121.143 17.6 121.007 17.584 120.863 17.568C120.719 17.552 120.591 17.528 120.479 17.496C120.367 17.48 120.287 17.464 120.239 17.448V16.056C120.367 16.12 120.558 16.168 120.814 16.2C121.086 16.216 121.286 16.224 121.414 16.224C121.59 16.224 121.798 16.208 122.038 16.176C122.278 16.128 122.527 15.984 122.783 15.744C123.055 15.488 123.319 15.096 123.575 14.568C123.847 14.024 124.079 13.256 124.271 12.264C124.479 11.256 124.646 9.984 124.774 8.448C124.902 6.912 124.966 5.024 124.966 2.784V0.36H135.503V17.496H133.87V1.752H126.55V2.688C126.55 5.184 126.471 7.288 126.311 9C126.151 10.696 125.934 12.104 125.662 13.224C125.39 14.328 125.079 15.184 124.727 15.792C124.391 16.384 124.039 16.816 123.671 17.088C123.319 17.36 122.958 17.52 122.59 17.568C122.238 17.616 121.919 17.64 121.631 17.64Z" fill="white"/>
<path d="M138.961 0.36H140.593V7.608H146.569C148.169 7.608 149.417 8.048 150.313 8.928C151.209 9.808 151.657 11.016 151.657 12.552C151.657 14.088 151.209 15.296 150.313 16.176C149.417 17.056 148.169 17.496 146.569 17.496H138.961V0.36ZM146.209 16.104C147.409 16.104 148.345 15.792 149.017 15.168C149.689 14.528 150.025 13.656 150.025 12.552C150.025 11.448 149.689 10.584 149.017 9.96C148.345 9.32 147.409 9 146.209 9H140.593V16.104H146.209Z" fill="white"/>
<path d="M154.078 0.36H155.71V16.104H163.822V0.36H165.454V16.104H173.566V0.36H175.198V17.496H154.078V0.36Z" fill="white"/>
<path d="M178.664 0.36H190.496V1.752H180.296V7.944H189.848V9.336H180.296V16.104H190.616V17.496H178.664V0.36Z" fill="white"/>
<path d="M136.163 43.9961C138.055 43.9961 139.534 44.1728 140.558 44.5596C141.073 44.7542 141.505 45.0136 141.811 45.3604C142.126 45.7173 142.288 46.1451 142.288 46.6211C142.288 47.5256 141.706 48.5325 140.756 49.6084C139.787 50.707 138.351 51.97 136.464 53.3955C134.601 54.8033 133.224 56.0195 132.319 57.0459C131.393 58.0949 131.038 58.8589 131.038 59.3711C131.038 59.6034 131.11 59.7955 131.264 59.9697C131.427 60.1542 131.698 60.3376 132.121 60.4971C132.972 60.8187 134.305 60.9961 136.163 60.9961C143.59 60.9961 158.529 58.1814 181.041 52.5117L181.285 53.4805C158.796 59.1442 143.735 61.9961 136.163 61.9961C134.27 61.9961 132.791 61.8194 131.767 61.4326C131.252 61.238 130.82 60.9786 130.514 60.6318C130.199 60.2749 130.038 59.8471 130.038 59.3711C130.038 58.4666 130.62 57.4597 131.569 56.3838C132.538 55.2852 133.974 54.0222 135.861 52.5967C137.724 51.1889 139.101 49.9727 140.006 48.9463C140.932 47.8972 141.288 47.1332 141.288 46.6211C141.288 46.3888 141.215 46.1967 141.061 46.0225C140.898 45.838 140.627 45.6546 140.205 45.4951C139.353 45.1735 138.02 44.9961 136.163 44.9961C128.735 44.9961 113.796 47.8108 91.2847 53.4805C68.7965 59.1442 53.7354 61.9961 46.1626 61.9961C44.2704 61.9961 42.7908 61.8194 41.7671 61.4326C41.2519 61.238 40.8201 60.9786 40.5142 60.6318C40.1992 60.2749 40.0376 59.8471 40.0376 59.3711C40.0376 58.4666 40.6195 57.4597 41.5688 56.3838C42.5382 55.2852 43.9742 54.0222 45.8608 52.5967C47.7241 51.1889 49.1007 49.9727 50.0063 48.9463C50.932 47.8972 51.2876 47.1332 51.2876 46.6211C51.2876 46.3888 51.2148 46.1967 51.061 46.0225C50.8983 45.838 50.6268 45.6546 50.2046 45.4951C49.3533 45.1735 48.0204 44.9961 46.1626 44.9961C38.7354 44.9961 23.7965 47.8108 1.28467 53.4805L1.04053 52.5117C23.5287 46.848 38.5898 43.9961 46.1626 43.9961C48.0548 43.9961 49.5344 44.1728 50.5581 44.5596C51.0733 44.7542 51.5051 45.0136 51.811 45.3604C52.126 45.7173 52.2876 46.1451 52.2876 46.6211C52.2876 47.5256 51.7057 48.5325 50.7563 49.6084C49.787 50.707 48.351 51.97 46.4644 53.3955C44.6011 54.8033 43.2245 56.0195 42.3188 57.0459C41.3932 58.0949 41.0376 58.8589 41.0376 59.3711C41.0376 59.6034 41.1104 59.7955 41.2642 59.9697C41.4269 60.1542 41.6984 60.3376 42.1206 60.4971C42.9719 60.8187 44.3048 60.9961 46.1626 60.9961C53.5898 60.9961 68.5287 58.1814 91.0405 52.5117C113.529 46.848 128.59 43.9961 136.163 43.9961Z" fill="white"/>
</svg>
